# AST/ASF file generated using VICON BodyLanguage
# -----------------------------------------------
:version 1.10
:name VICON
:units
  mass 1.0
  length 0.45
  angle deg
:documentation
   .ast/.asf automatically generated from VICON data using
   VICON BodyBuilder and BodyLanguage model FoxedUp or BRILLIANT.MOD
:root
   order TX TY TZ RX RY RZ
   axis XYZ
   position 0 0 0  
   orientation 0 0 0 
:bonedata
  begin
     id 1 
     name lhipjoint
     direction 0.578396 -0.714046 0.394458 
     length 2.21935 
     axis 0 0 0  XYZ
  end
  begin
     id 2 
     name lfemur
     direction 0.34202 -0.939693 0  
     length 6.39105  
     axis 0 0 20  XYZ
    dof rx ry rz
    limits (-160.0 20.0)
           (-70.0 70.0)
           (-60.0 70.0)
  end
  begin
     id 3 
     name ltibia
     direction 0.34202 -0.939693 0   
     length 6.99037   
     axis 0 0 20   XYZ
    dof rx
    limits (-10.0 170.0)
  end
  begin
     id 4 
     name lfoot
     direction 0.0582372 -0.160005 0.985397   
     length 2.06111   
     axis -90 7.62852e-016 20   XYZ
    dof rx rz
    limits (-45.0 90.0)
           (-70.0 20.0)
  end
  begin
     id 5 
     name ltoes
     direction 1.53556e-011 -4.21875e-011 1   
     length 1.04074   
     axis -90 7.62852e-016 20   XYZ
    dof rx
    limits (-90.0 20.0)
  end
  begin
     id 6 
     name rhipjoint
     direction -0.558179 -0.726269 0.40121   
     length 2.182  
     axis 0 0 0  XYZ 
  end
  begin
     id 7 
     name rfemur
     direction -0.34202 -0.939693 0   
     length 6.51172   
     axis 0 0 -20   XYZ
    dof rx ry rz
    limits (-160.0 20.0)
           (-70.0 70.0)
           (-70.0 60.0)
  end
  begin
     id 8 
     name rtibia
     direction -0.34202 -0.939693 0   
     length 7.02607   
     axis 0 0 -20   XYZ
    dof rx
    limits (-10.0 170.0)
 end
 begin
     id 9 
     name rfoot
     direction -0.0788856 -0.216737 0.973038   
     length 1.96734  
     axis -90 -7.62852e-016 -20   XYZ
    dof rx rz
    limits (-45.0 90.0)
           (-20.0 70.0)
  end
  begin
     id 10 
     name rtoes
     direction -1.53567e-011 -4.21783e-011 1   
     length 0.990825   
     axis -90 -7.62852e-016 -20   XYZ
    dof rx
    limits (-90.0 20.0)
  end
  begin
     id 11 
     name lowerback
     direction 0.00668177 0.999323 -0.0361741   
     length 1.7655   
     axis 0 0 0   XYZ
    dof rx ry rz
    limits (-20.0 45.0)
           (-30.0 30.0)
           (-30.0 30.0)
  end
  begin
     id 12 
     name upperback
     direction -0.00222086 0.99851 0.0545167   
     length 1.74912   
     axis 0 0 0   XYZ
    dof rx ry rz
    limits (-20.0 45.0)
           (-30.0 30.0)
           (-30.0 30.0)
  end
  begin
     id 13 
     name thorax
     direction -0.00733971 0.997496 0.0703443   
     length 1.75715   
     axis 0 0 0   XYZ
    dof rx ry rz
    limits (-20.0 45.0)
           (-30.0 30.0)
           (-30.0 30.0)
  end
  begin
     id 14 
     name lowerneck
     direction 0.0279797 0.994795 0.0979765   
     length 1.46939   
     axis 0 0 0   XYZ
    dof rx ry rz
    limits (-20.0 45.0)
           (-30.0 30.0)
           (-30.0 30.0)
  end
  begin
     id 15 
     name upperneck
     direction 0.00339187 0.976776 -0.214238   
     length 1.48018   
     axis 0 0 0   XYZ
    dof rx ry rz
    limits (-20.0 45.0)
           (-30.0 30.0)
           (-30.0 30.0)
  end
  begin
     id 16
     name head
     direction -0.00263506 0.996603 -0.0823096  
     length 1.4976  
     axis 0 0 0   XYZ
    dof rx ry rz
    limits (-20.0 45.0)
           (-30.0 30.0)
           (-30.0 30.0)
  end
  begin
     id 17 
     name lclavicle
     direction 0.894044 0.44508 -0.0508781  
     length 3.03024  
     axis 0 0 0   XYZ
    dof ry rz
    limits (-20.0 10.0)
           (0.0 20.0)
  end
  begin
     id 18 
     name lhumerus
     direction 1 -4.48961e-011 -2.39475e-018   
     length 4.4661   
     axis 180 -30 -90   XYZ
    dof rx ry rz
    limits (-60.0 90.0)
           (-90.0 90.0)
           (-90.0 90.0)
  end
  begin
     id 19
     name lradius
     direction 1 -4.48961e-011 9.29328e-028   
     length 3.41414   
     axis 180 -30 -90   XYZ
    dof rx
    limits (-10.0 170.0)
  end
  begin
     id 20
     name lwrist
     direction 1 -4.48985e-011 1.53461e-026   
     length 1.70707   
     axis -1.09697e-014 90 90   XYZ
    dof ry
    limits (-180.0 0.0)
 end
  begin
     id 21 
     name lhand
     direction 1 -4.48966e-011 3.06923e-026   
     length 0.328298   
     axis -1.95843e-014 90 90   XYZ
    dof rx rz
    limits (-90.0 90.0)
           (-45.0 45.0)
  end
  begin
     id 22 
     name lfingers
     direction 1 -4.48893e-011 6.13845e-026   
     length 0.264682   
     axis -3.91686e-014 90 90   XYZ
    dof rx
    limits (0.0 90.0)
  end
  begin
     id 23
     name lthumb
     direction 0.707107 -6.34876e-011 0.707107   
     length 0.380032   
     axis -90 45 2.85299e-015   XYZ
    dof rx rz
    limits (-45.0 45.0)
           (-45.0 45.0)
  end
  begin
     id 24 
     name rclavicle
     direction -0.936955 0.347862 -0.0332887   
     length 3.26927  
     axis 0 0 0   XYZ 
    dof ry rz
    limits (-10.0 20.0)
           (-20.0 0.0)
  end
  begin
     id 25 
     name rhumerus
     direction -1 -4.4896e-011 1.78637e-018  
     length 4.40431   
     axis 180 30 90   XYZ
    dof rx ry rz
    limits (-90.0 60.0)
           (-90.0 90.0)
           (-90.0 90.0)
  end
  begin
     id 26 
     name rradius
     direction -1 -4.48955e-011 9.34036e-027   
     length 3.04688   
     axis 180 30 90   XYZ
    dof rx
    limits (-10.0 170.0)
  end
  begin
     id 27 
     name rwrist
     direction -1 -4.49011e-011 1.53461e-026   
     length 1.52344   
     axis -1.09697e-014 -90 -90   XYZ
    dof ry
    limits (-180.0 0.0)
  end
  begin
     id 28
     name rhand
     direction -1 -4.48834e-011 3.06923e-026   
     length 0.500489   
     axis -1.95843e-014 -90 -90   XYZ
    dof rx rz
    limits (-90.0 90.0)
           (-45.0 45.0)
  end
  begin
     id 29
     name rfingers
     direction -1 -4.48967e-011 6.13845e-026   
     length 0.403507   
     axis -3.91686e-014 -90 -90   XYZ
    dof rx
    limits (0.0 90.0)
  end
  begin
     id 30
     name rthumb
     direction -0.707107 -6.34826e-011 0.707107   
     length 0.579358   
     axis -90 -45 -2.85299e-015   XYZ
    dof rx rz
    limits (-45.0 45.0)
           (-45.0 45.0)
  end
:hierarchy
  begin
    root lhipjoint rhipjoint lowerback
    lhipjoint lfemur
    lfemur ltibia
    ltibia lfoot
    lfoot ltoes
    rhipjoint rfemur
    rfemur rtibia
    rtibia rfoot
    rfoot rtoes
    lowerback upperback
    upperback thorax
    thorax lowerneck lclavicle rclavicle
    lowerneck upperneck
    upperneck head
    lclavicle lhumerus
    lhumerus lradius
    lradius lwrist
    lwrist lhand lthumb
    lhand lfingers
    rclavicle rhumerus
    rhumerus rradius
    rradius rwrist
    rwrist rhand rthumb
    rhand rfingers
  end

#!OML:ASF H:\IndianDance\Patient Classification 1\Patient 1\Session 1\dancer.ASF
:FULLY-SPECIFIED
:DEGREES
188
root 8.6742 13.9576 3.24606 4.53863 -42.7535 -2.43305
lowerback 7.00654 2.06416 0.689856
upperback -5.19539 2.90998 0.89417
thorax -9.46255 1.39327 0.126501
lowerneck -14.1001 -9.7683 -5.94876
upperneck 19.9372 -14.696 9.76943
head 9.84054 -6.35953 2.36553
rclavicle -4.33413e-014 4.47266e-015
rhumerus 11.9314 27.2311 -30.7321
rradius 100.713
rwrist -66.0147
rhand 37.6257 -11.546
rfingers 7.12502
rthumb 60.3996 -24.8999
lclavicle -4.33413e-014 4.47266e-015
lhumerus 33.7889 -56.8086 5.83566
lradius 106.04
lwrist 12.7076
lhand -43.8346 31.1202
lfingers 7.12502
lthumb -16.662 60.425
rfemur -39.5212 -8.03148 9.05889
rtibia 100.676
rfoot -14.0628 -7.3227
rtoes 8.49386
lfemur -35.8359 5.74566 -22.5135
ltibia 65.6758
lfoot -24.411 -12.7579
ltoes 19.0587
189
root 8.66305 13.9658 3.25153 4.27563 -41.5475 -2.21096
lowerback 7.02067 2.08088 0.61414
upperback -5.18172 2.91673 0.797205
thorax -9.45423 1.39831 0.0645239
lowerneck -14.085 -9.81856 -6.01566
upperneck 19.9159 -14.7392 9.74974
head 9.83744 -6.38582 2.36346
rclavicle 5.07274e-014 -1.88845e-015
rhumerus 12.1734 27.1623 -31.4993
rradius 100.205
rwrist -69.0945
rhand 40.0342 -12.7477
rfingers 7.12502
rthumb 62.4236 -23.704
lclavicle 5.07274e-014 -1.88845e-015
lhumerus 34.3119 -57.3406 5.9275
lradius 105.963
lwrist 11.9838
lhand -44.545 30.2546
lfingers 7.12502
lthumb -17.3458 59.5006
rfemur -40.7106 -7.43192 9.82252
rtibia 101.13
rfoot -14.5013 -6.75964
rtoes 7.03701
lfemur -35.6793 5.25181 -22.8023
ltibia 65.4803
lfoot -24.135 -12.7195
ltoes 19.6304
190
root 8.65206 13.9737 3.25766 4.03351 -40.406 -2.03386
lowerback 7.07127 2.11859 0.589725
upperback -5.17648 2.95771 0.696931
thorax -9.47405 1.41611 -0.0364042
lowerneck -14.0711 -9.86494 -6.04529
upperneck 19.9071 -14.7751 9.68245
head 9.83111 -6.4106 2.34056
rclavicle -3.25324e-014 -1.16786e-014
rhumerus 12.3566 27.17 -32.2374
rradius 99.7295
rwrist -72.013
rhand 41.8955 -13.706
rfingers 7.12502
rthumb 63.9467 -22.5445
lclavicle -3.25324e-014 -1.16786e-014
lhumerus 34.8076 -57.8934 6.02172
lradius 105.839
lwrist 11.3225
lhand -45.2165 29.3645
lfingers 7.12502
lthumb -17.9919 58.5523
rfemur -41.8961 -6.79898 10.6405
rtibia 101.307
rfoot -14.9268 -6.379
rtoes 5.56552
lfemur -35.4952 4.8042 -23.0857
ltibia 65.2989
lfoot -23.9035 -12.5388
ltoes 20.1253
191
root 8.64112 13.9812 3.26464 3.80455 -39.3233 -1.89396
lowerback 7.14314 2.17823 0.597572
upperback -5.17148 3.03284 0.606676
thorax -9.50551 1.44855 -0.150871
lowerneck -14.0585 -9.90911 -6.05061
upperneck 19.9029 -14.8012 9.56489
head 9.81931 -6.43404 2.29844
rclavicle 6.42199e-014 1.60022e-014
rhumerus 12.5069 27.2287 -32.9155
rradius 99.2667
rwrist -74.7626
rhand 43.3263 -14.4532
rfingers 7.12502
rthumb 65.0885 -21.4821
lclavicle 6.42199e-014 1.60022e-014
lhumerus 35.27 -58.4498 6.14602
lradius 105.669
lwrist 10.6893
lhand -45.8231 28.4562
lfingers 7.12502
lthumb -18.5755 57.5893
rfemur -43.0556 -6.13874 11.4941
rtibia 101.202
rfoot -15.327 -6.19181
rtoes 4.01295
lfemur -35.28 4.3933 -23.366
ltibia 65.1239
lfoot -23.7317 -12.2119
ltoes 20.455
192
root 8.6301 13.9882 3.27262 3.57974 -38.2904 -1.77832
lowerback 7.23729 2.25824 0.628155
upperback -5.17187 3.13885 0.52374
thorax -9.555 1.49447 -0.276265
lowerneck -14.0435 -9.95204 -6.03153
upperneck 19.9108 -14.8209 9.40037
head 9.80456 -6.45744 2.23782
rclavicle 2.22515e-014 5.29264e-015
rhumerus 12.613 27.332 -33.5529
rradius 98.811
rwrist -77.3271
rhand 44.254 -15.0576
rfingers 7.12502
rthumb 65.8135 -20.8191
lclavicle 2.22515e-014 5.29264e-015
lhumerus 35.7139 -59.0103 6.27515
lradius 105.465
lwrist 10.0642
lhand -46.3366 27.5719
lfingers 7.12502
lthumb -19.0694 56.657
rfemur -44.1682 -5.45817 12.3561
rtibia 100.821
rfoot -15.6883 -6.1848
rtoes 2.42994
lfemur -35.0266 3.99343 -23.6398
ltibia 64.9505
lfoot -23.6025 -11.813
ltoes 20.8065
193
root 8.61887 13.9949 3.2816 3.35235 -37.2961 -1.67419
lowerback 7.36102 2.35045 0.675249
upperback -5.18505 3.26396 0.444605
thorax -9.63492 1.54815 -0.411806
lowerneck -14.0214 -9.98999 -5.99957
upperneck 19.9371 -14.8312 9.20271
head 9.79015 -6.47879 2.16582
rclavicle -1.04707e-013 -1.84621e-014
rhumerus 12.6771 27.467 -34.1636
rradius 98.343
rwrist -79.7065
rhand 44.856 -15.5707
rfingers 7.12502
rthumb 66.2769 -20.4673
lclavicle -1.04707e-013 -1.84621e-014
lhumerus 36.1296 -59.5805 6.40137
lradius 105.247
lwrist 9.47304
lhand -46.749 26.7703
lfingers 7.12502
lthumb -19.466 55.8159
rfemur -45.215 -4.76754 13.2014
rtibia 100.174
rfoot -15.9979 -6.34108
rtoes 0.846084
lfemur -34.737 3.58218 -23.9067
ltibia 64.774
lfoot -23.5126 -11.3758
ltoes 21.1708
194
root 8.60742 14.001 3.29159 3.12294 -36.3274 -1.57538
lowerback 7.50813 2.44893 0.729939
upperback -5.21089 3.39944 0.372373
thorax -9.74213 1.60603 -0.547911
lowerneck -13.9888 -10.0221 -5.97197
upperneck 19.9755 -14.8312 8.99229
head 9.77638 -6.49725 2.09224
rclavicle 2.74136e-014 4.38569e-015
rhumerus 12.7144 27.6205 -34.7514
rradius 97.8537
rwrist -81.8656
rhand 45.2753 -16.0292
rfingers 7.12502
rthumb 66.5961 -20.3024
lclavicle 2.74136e-014 4.38569e-015
lhumerus 36.5106 -60.1515 6.5246
lradius 105.038
lwrist 8.96252
lhand -47.0857 26.1209
lfingers 7.12502
lthumb -19.7897 55.1335
rfemur -46.1825 -4.07689 14.0085
rtibia 99.2802
rfoot -16.2455 -6.60075
rtoes -0.689061
lfemur -34.4186 3.13031 -24.1594
ltibia 64.5945
lfoot -23.4454 -10.9561
ltoes 21.627
